<svg width="51" height="78" viewBox="0 0 51 78" fill="none" xmlns="http://www.w3.org/2000/svg">
<path d="M43.5397 44.2062C53.4868 34.1068 53.4868 17.6739 43.5397 7.57461C33.5926 -2.52487 17.4076 -2.52487 7.46033 7.57461C-2.48677 17.6739 -2.48677 34.1068 7.46033 44.2062C11.6708 48.4811 16.999 50.9459 22.4984 51.6018V60.2737H16.4957C14.8381 60.2737 13.4944 61.6381 13.4944 63.3211C13.4944 65.004 14.8381 66.3684 16.4957 66.3684H22.4984V74.9527C22.4986 76.6356 23.8423 78 25.5001 78C27.1577 78 28.5014 76.6356 28.5014 74.9527V66.3684H34.5043C36.1619 66.3684 37.5056 65.004 37.5056 63.3211C37.5056 61.6381 36.1619 60.2737 34.5043 60.2737H28.5014V51.602C34.001 50.9459 39.3292 48.4811 43.5397 44.2062ZM11.705 39.8965C4.09838 32.1734 4.09838 19.6072 11.705 11.8841C19.3115 4.16135 31.6882 4.16089 39.2951 11.8841C46.9018 19.6072 46.9018 32.1734 39.2951 39.8965C31.6885 47.6194 19.3117 47.6194 11.705 39.8965Z" fill="#1D1D1D"/>
</svg>
