<svg width="70" height="70" viewBox="0 0 70 70" fill="none" xmlns="http://www.w3.org/2000/svg">
<path d="M69.9623 2.54069C69.9302 2.28933 69.8747 2.04722 69.7828 1.82007C69.78 1.81437 69.78 1.80654 69.7785 1.79942C69.7785 1.79799 69.7771 1.79657 69.7757 1.79515C69.6746 1.55589 69.5364 1.3387 69.3805 1.13719C69.342 1.08948 69.3043 1.04248 69.2637 0.99762C69.0971 0.809631 68.9162 0.635885 68.7062 0.494181C68.7005 0.489909 68.6933 0.488485 68.6876 0.484212C68.4847 0.350342 68.2604 0.249227 68.0254 0.169474C67.967 0.148824 67.9101 0.131022 67.8502 0.115356C67.6039 0.0484212 67.3504 0 67.0833 0H46.6667C45.0567 0 43.75 1.30666 43.75 2.91667C43.75 4.52667 45.0567 5.83333 46.6667 5.83333H60.0409L42.6328 23.2415C37.9907 19.5287 32.2756 17.5 26.25 17.5C11.7763 17.5 0 29.2763 0 43.75C0 58.2237 11.7763 70 26.25 70C40.7237 70 52.5 58.2237 52.5 43.75C52.5 37.7273 50.4727 32.0135 46.7571 27.3672L64.1667 9.95768V23.3333C64.1667 24.9433 65.4733 26.25 67.0833 26.25C68.6933 26.25 70 24.9433 70 23.3333V2.91667C70 2.85543 69.9858 2.79704 69.9822 2.73722C69.9779 2.67029 69.9708 2.6062 69.9623 2.54069ZM26.25 64.1667C14.9914 64.1667 5.83333 55.0086 5.83333 43.75C5.83333 32.4914 14.9914 23.3333 26.25 23.3333C31.7009 23.3333 36.8329 25.4553 40.6916 29.3005C44.5447 33.1671 46.6667 38.2991 46.6667 43.75C46.6667 55.0086 37.5086 64.1667 26.25 64.1667Z" fill="#1D1D1D"/>
</svg>
